<?xml version="1.0" encoding="UTF-8"?>
<svg version="1.1" xmlns="http://www.w3.org/2000/svg" width="844" height="806">
<path d="M0 0 C278.52 0 557.04 0 844 0 C844 265.98 844 531.96 844 806 C565.48 806 286.96 806 0 806 C0 540.02 0 274.04 0 0 Z " fill="#FDFBF4" transform="translate(0,0)"/>
<path d="M0 0 C1.01858093 -0.00619858 2.03716187 -0.01239716 3.08660889 -0.01878357 C5.24181157 -0.02588485 7.39706908 -0.0227024 9.55224609 -0.01000977 C12.83404997 0.00379969 16.11297067 -0.03014436 19.39453125 -0.06835938 C21.49218819 -0.06931116 23.58984868 -0.06744856 25.6875 -0.0625 C27.14884369 -0.08238731 27.14884369 -0.08238731 28.63970947 -0.10267639 C36.30568722 0.00091678 41.01247844 2.28892521 46.6328125 7.41015625 C47.07882812 7.95671875 47.52484375 8.50328125 47.984375 9.06640625 C48.67660156 9.88625 48.67660156 9.88625 49.3828125 10.72265625 C53.30381878 16.61665294 53.34027169 22.70310806 52.609375 29.56640625 C51.26102703 33.80605708 49.18516709 36.89724247 46.296875 40.25390625 C44.31784974 42.41251845 44.31784974 42.41251845 44.89927673 44.92301941 C45.56913115 47.41659591 46.34766617 49.76779171 47.28344727 52.1730957 C47.62372452 53.05363113 47.96400177 53.93416656 48.31459045 54.84138489 C48.8646299 56.24634468 48.8646299 56.24634468 49.42578125 57.6796875 C49.80169907 58.64923874 50.17761688 59.61878998 50.56492615 60.61772156 C51.76343698 63.70627736 52.96757553 66.79260358 54.171875 69.87890625 C54.98670042 71.97576682 55.80115787 74.07277043 56.61523438 76.16992188 C58.60901834 81.30374913 60.60742418 86.43575857 62.609375 91.56640625 C63.3418042 91.49639404 64.0742334 91.42638184 64.82885742 91.35424805 C65.80185791 91.26312744 66.7748584 91.17200684 67.77734375 91.078125 C69.21630005 90.94216919 69.21630005 90.94216919 70.68432617 90.8034668 C93.2527934 88.97440564 113.25102516 95.08547656 130.609375 109.56640625 C131.58390625 110.33210938 132.5584375 111.0978125 133.5625 111.88671875 C147.24140726 123.34218416 155.27397176 143.52797974 156.921875 160.8515625 C157.69855346 181.99177946 149.63700577 202.28177655 135.984375 218.19140625 C122.42894253 232.59019644 103.63254451 241.38672156 83.82836914 242.04174805 C64.2617219 242.21919542 45.22510062 235.91836612 30.609375 222.56640625 C29.77921875 221.81617188 28.9490625 221.0659375 28.09375 220.29296875 C13.04662281 206.0117133 4.98537038 186.7812793 4.234375 166.12890625 C4.6430908 154.34722893 6.91144455 142.9347715 12.609375 132.56640625 C13.10179687 131.60476563 13.59421875 130.643125 14.1015625 129.65234375 C21.61802663 115.73429774 32.13077491 106.59165047 45.609375 98.56640625 C44.99380885 92.68432969 42.78276719 87.6054319 40.546875 82.19140625 C40.16982422 81.26457031 39.79277344 80.33773437 39.40429688 79.3828125 C38.47811104 77.10838146 37.54634832 74.83640958 36.609375 72.56640625 C32.84377856 76.24283556 29.33978744 80.0660542 25.921875 84.06640625 C25.39859619 84.67734131 24.87531738 85.28827637 24.33618164 85.91772461 C20.51595177 90.41473721 16.89006954 95.03069282 13.33154297 99.73583984 C9.48482093 104.79666912 5.3882885 109.62330914 1.2578125 114.453125 C-1.14798614 117.26855027 -3.49514763 120.12769046 -5.828125 123.00390625 C-9.30135475 127.27386254 -12.85876982 131.46124582 -16.453125 135.62890625 C-20.55428013 140.38747886 -24.55881605 145.20143257 -28.45703125 150.12890625 C-44.19540588 169.96879669 -44.19540588 169.96879669 -47.390625 171.56640625 C-50.38032789 171.65345771 -53.34647455 171.6819077 -56.3359375 171.6640625 C-57.2209494 171.66264755 -58.1059613 171.6612326 -59.01779175 171.65977478 C-61.85043691 171.65416765 -64.68300364 171.64161396 -67.515625 171.62890625 C-69.43359261 171.62389217 -71.35156146 171.6193291 -73.26953125 171.61523438 C-77.97659282 171.60419591 -82.6835956 171.5869265 -87.390625 171.56640625 C-87.46410156 172.62154419 -87.46410156 172.62154419 -87.5390625 173.69799805 C-89.05465285 192.9646137 -97.10255947 209.37227073 -111.390625 222.56640625 C-130.01351371 237.47926635 -150.76777182 243.54965975 -174.390625 241.56640625 C-191.64129929 239.46285446 -206.58597234 229.81235434 -218.390625 217.56640625 C-219.05320313 216.93476563 -219.71578125 216.303125 -220.3984375 215.65234375 C-233.32338679 202.4955568 -237.71720646 183.166953 -237.828125 165.37890625 C-237.61446271 147.08884813 -232.79584745 131.33644689 -220.390625 117.56640625 C-219.20533203 116.24189453 -219.20533203 116.24189453 -217.99609375 114.890625 C-207.5034435 103.78347108 -196.04492745 96.88289633 -181.390625 92.56640625 C-180.6378125 92.32148438 -179.885 92.0765625 -179.109375 91.82421875 C-167.91194072 88.68032374 -155.42506453 90.07418002 -144.34375 92.91015625 C-141.56215029 93.52828952 -139.22207218 93.61656263 -136.390625 93.56640625 C-135.94783203 92.79151855 -135.50503906 92.01663086 -135.04882812 91.21826172 C-126.78125 76.75 -126.78125 76.75 -125.72709656 74.90687561 C-125.02160491 73.67116601 -124.31801092 72.43437114 -123.61628723 71.19651794 C-121.80252253 68.00278001 -119.95693031 64.83596539 -118.0456543 61.69946289 C-117.48273682 60.75993271 -117.48273682 60.75993271 -116.90844727 59.80142212 C-115.86939445 58.07006144 -114.81634366 56.34712376 -113.76245117 54.62475586 C-112.24294658 51.23717194 -112.20157689 49.77299518 -113.203125 46.25390625 C-113.91444285 44.6832003 -114.64701547 43.1220846 -115.390625 41.56640625 C-116.44376342 38.58346627 -117.42338518 35.57817828 -118.390625 32.56640625 C-119.09670898 32.58735352 -119.80279297 32.60830078 -120.53027344 32.62988281 C-123.73357876 32.71309923 -126.93665663 32.7650841 -130.140625 32.81640625 C-131.80738281 32.86667969 -131.80738281 32.86667969 -133.5078125 32.91796875 C-135.11269531 32.93730469 -135.11269531 32.93730469 -136.75 32.95703125 C-137.73452148 32.97797852 -138.71904297 32.99892578 -139.73339844 33.02050781 C-143.14338092 32.43776549 -144.27806404 31.25104338 -146.390625 28.56640625 C-147.30596418 25.42810049 -147.66231752 23.45558177 -146.703125 20.31640625 C-145.08370827 18.15718394 -143.89573983 17.56748401 -141.390625 16.56640625 C-138.74134827 16.29898071 -138.74134827 16.29898071 -135.69165039 16.27587891 C-134.54688736 16.2631192 -133.40212433 16.2503595 -132.22267151 16.23721313 C-130.99032272 16.23498749 -129.75797394 16.23276184 -128.48828125 16.23046875 C-127.2184288 16.22381195 -125.94857635 16.21715515 -124.64024353 16.21029663 C-121.95443703 16.20017027 -119.26903537 16.19461446 -116.58325195 16.19580078 C-113.1487658 16.19600406 -109.71510631 16.1686886 -106.28081608 16.13425636 C-102.99583561 16.10661976 -99.7108622 16.10783778 -96.42578125 16.10546875 C-95.1954567 16.09109772 -93.96513214 16.07672668 -92.69752502 16.06192017 C-91.54960983 16.06807343 -90.40169464 16.07422668 -89.21899414 16.08056641 C-87.7082003 16.07629135 -87.7082003 16.07629135 -86.16688538 16.07192993 C-82.61710818 16.70417638 -80.94615548 18.06762835 -78.390625 20.56640625 C-77.328125 23.50390625 -77.328125 23.50390625 -77.390625 26.56640625 C-79.16101949 29.31357012 -80.45354344 31.09786547 -83.390625 32.56640625 C-86.27432833 32.63835494 -89.13302164 32.65932333 -92.015625 32.62890625 C-92.81742188 32.62439453 -93.61921875 32.61988281 -94.4453125 32.61523438 C-96.42711506 32.60343793 -98.40887933 32.5855023 -100.390625 32.56640625 C-99.9575 33.68660156 -99.524375 34.80679688 -99.078125 35.9609375 C-98.51536447 37.43349421 -97.95287876 38.90615597 -97.390625 40.37890625 C-97.10445312 41.11689453 -96.81828125 41.85488281 -96.5234375 42.61523438 C-96.25273437 43.32744141 -95.98203125 44.03964844 -95.703125 44.7734375 C-95.32607422 45.75534058 -95.32607422 45.75534058 -94.94140625 46.75708008 C-94.390625 48.56640625 -94.390625 48.56640625 -94.390625 51.56640625 C-53.800625 51.56640625 -13.210625 51.56640625 28.609375 51.56640625 C27.949375 49.58640625 27.289375 47.60640625 26.609375 45.56640625 C25.84040681 40.95259709 25.66597388 38.92372723 28.36328125 35.04296875 C29.78784615 33.34572327 31.25311939 31.68160188 32.76171875 30.05859375 C34.95648126 27.09821641 35.53625734 25.24178724 35.609375 21.56640625 C34.7899498 19.24710226 34.7899498 19.24710226 32.609375 17.56640625 C29.58700399 16.97472956 26.59408576 17.05750351 23.5234375 17.09765625 C22.62950287 17.09060669 21.73556824 17.08355713 20.81454468 17.07629395 C16.98916922 17.04676371 13.16429979 17.06342673 9.33886719 17.07568359 C6.54591452 17.07806585 3.75378768 17.0571336 0.9609375 17.03515625 C-0.33147354 17.05213562 -0.33147354 17.05213562 -1.6499939 17.06945801 C-5.75944306 17.0349527 -7.85746977 16.90237416 -11.41259766 14.66210938 C-13.80167452 12.13090278 -14.32628887 11.15829866 -14.703125 7.69140625 C-14.390625 4.56640625 -14.390625 4.56640625 -13.02050781 2.40649414 C-8.91722787 -0.46450669 -4.89456744 -0.02471319 0 0 Z " fill="#282828" transform="translate(462.390625,248.43359375)"/>
<path d="M0 0 C85.06517312 0 85.06517312 0 99.2890625 11.91796875 C108.34692249 21.57326206 109.48889407 32.83968048 109.2734375 45.46875 C108.90680894 54.23879565 105.91073451 60.98573548 99.8828125 67.33984375 C97.11926874 69.77657839 94.30470561 71.38136868 91 73 C93.58968864 74.72645909 95.92652178 75.87109507 98.75 77.125 C106.90541664 81.17893159 111.57892948 87.70482364 115 96 C118.17407653 105.52222958 117.54142655 120.60154828 113.38671875 129.68359375 C105.20380555 143.35251636 95.00539258 148.85659677 80 153 C53.69410712 157.38431548 26.66874992 154 0 154 C0 103.18 0 52.36 0 0 Z " fill="#282828" transform="translate(92,504)"/>
<path d="M0 0 C9.9 0 19.8 0 30 0 C30.0093457 3.0625708 30.01869141 6.1251416 30.02832031 9.28051758 C30.06216639 19.42668729 30.11775788 29.57265525 30.18390274 39.71866322 C30.22332391 45.86705874 30.25553884 52.01531218 30.27099609 58.16381836 C30.28619773 64.10326851 30.32070614 70.04232791 30.36830902 75.98160362 C30.38308657 78.24163087 30.39103892 80.50171392 30.39188385 82.76178932 C30.39426613 85.9403253 30.42144804 89.11779239 30.45410156 92.29614258 C30.4490712 93.21972061 30.44404083 94.14329865 30.43885803 95.09486389 C30.59430489 104.94692028 33.47284057 113.10722897 40.21875 120.34375 C47.26147441 126.89224814 55.42616803 128.64445866 64.91796875 128.33984375 C74.73429567 127.25743508 82.6333865 123.66151794 89 116 C93.61440681 108.30932198 94.1513909 100.83796443 94.20532227 92.0690918 C94.21522186 91.07349747 94.22512146 90.07790314 94.23532104 89.05213928 C94.26685843 85.76785647 94.29166283 82.48355919 94.31640625 79.19921875 C94.33698247 76.91949593 94.35797912 74.63977688 94.37937927 72.36006165 C94.43453087 66.36452277 94.48397065 60.36894986 94.53222656 54.37335205 C94.58249205 48.2534279 94.63815176 42.13355308 94.69335938 36.01367188 C94.80085642 24.00915674 94.90232017 12.00459875 95 0 C99.1117256 -0.02465746 103.22342278 -0.04283959 107.33520508 -0.05493164 C108.73495228 -0.0599708 110.1346942 -0.06680216 111.53442383 -0.07543945 C113.54245777 -0.0875232 115.55052957 -0.09269807 117.55859375 -0.09765625 C119.37315063 -0.10551147 119.37315063 -0.10551147 121.22436523 -0.11352539 C124 0 124 0 125 1 C125.10603026 4.02574029 125.1467743 7.02877537 125.14526367 10.05517578 C125.14862228 11.00658447 125.1519809 11.95799316 125.15544128 12.93823242 C125.16499493 16.10727218 125.16689756 19.27625921 125.16796875 22.4453125 C125.17118175 24.64997377 125.17454586 26.85463483 125.17805481 29.05929565 C125.1840595 33.69822685 125.18589369 38.3371394 125.18530273 42.97607422 C125.18520183 48.88566595 125.19877356 54.79513559 125.21607494 60.70469856 C125.22727209 65.26899753 125.22921948 69.8332679 125.22869301 74.39757919 C125.22986463 76.57339773 125.23423986 78.74921721 125.24202538 80.92502213 C125.31833363 104.48440045 124.43925973 124.11690118 107.09765625 141.95703125 C93.73728615 154.49774674 76.83486861 157.6553414 59.10449219 157.47045898 C42.60949379 156.92956843 27.16373845 151.79140645 14.99609375 140.2265625 C3.4314269 127.32664058 -0.35490922 111.9421174 -0.22705078 95.02075195 C-0.22748886 93.4675248 -0.22748886 93.4675248 -0.22793579 91.88291931 C-0.22655585 88.50128442 -0.21105816 85.11987708 -0.1953125 81.73828125 C-0.19157761 79.37745789 -0.18873289 77.01663297 -0.18673706 74.6558075 C-0.17913807 68.47286625 -0.15952194 62.29002049 -0.1373291 56.1071167 C-0.1167899 49.78561698 -0.10771814 43.46410167 -0.09765625 37.14257812 C-0.07627227 24.76167027 -0.04112086 12.38085805 0 0 Z " fill="#292929" transform="translate(648,504)"/>
<path d="M0 0 C33.66 0 67.32 0 102 0 C102 8.91 102 17.82 102 27 C78.24 27 54.48 27 30 27 C30.495 44.82 30.495 44.82 31 63 C63.67 63.495 63.67 63.495 97 64 C97 72.25 97 80.5 97 89 C75.22 89.33 53.44 89.66 31 90 C31 101.88 31 113.76 31 126 C54.76 126.33 78.52 126.66 103 127 C103 135.91 103 144.82 103 154 C69.01 154 35.02 154 0 154 C0 103.18 0 52.36 0 0 Z " fill="#282828" transform="translate(522,504)"/>
<path d="M0 0 C15.40359062 8.23015066 25.0727305 20.11483794 30.91796875 36.390625 C35.51293586 52.52694143 32.3427138 68.59899282 24.8125 83.3125 C22.71740351 86.5550332 20.38508359 89.43852587 17.8125 92.3125 C17.21695313 93.00085938 16.62140625 93.68921875 16.0078125 94.3984375 C5.79387131 105.46000866 -7.92644022 111.23551754 -22.8269043 111.83398438 C-40.67268648 112.10155166 -54.66503715 106.52582642 -67.875 94.3125 C-79.97141723 81.71422855 -84.73725423 66.51419068 -84.67797852 49.296875 C-84.20248981 33.06377726 -77.17126552 19.39172842 -65.46484375 8.265625 C-62.32602793 5.57367318 -59.06739922 2.83988114 -55.1875 1.3125 C-52.1875 2.3125 -52.1875 2.3125 -50.88818359 4.81494141 C-50.45844238 5.92015137 -50.02870117 7.02536133 -49.5859375 8.1640625 C-49.22914413 9.06826683 -49.22914413 9.06826683 -48.86514282 9.99073792 C-48.35375636 11.29143466 -47.84762928 12.59420883 -47.34619141 13.89877319 C-46.56014347 15.94363036 -45.76038256 17.98263679 -44.95703125 20.02075195 C-42.4359352 26.43444879 -39.97135587 32.86849903 -37.5390625 39.31640625 C-37.13896973 40.36683105 -36.73887695 41.41725586 -36.32666016 42.49951172 C-35.58274927 44.45893408 -34.85012134 46.42268777 -34.13037109 48.39111328 C-33.79859863 49.26622559 -33.46682617 50.14133789 -33.125 51.04296875 C-32.84527344 51.79989014 -32.56554687 52.55681152 -32.27734375 53.33666992 C-30.93244939 55.7748935 -29.57411757 56.89994887 -27.1875 58.3125 C-24.07717921 58.18554813 -21.98671957 57.79203174 -19.3125 56.1875 C-17.56919241 53.28198735 -17.74912496 50.57089407 -18.1875 47.3125 C-19.33383692 43.45007261 -20.83231733 39.74791291 -22.34375 36.015625 C-22.76547485 34.94503845 -23.18719971 33.8744519 -23.6217041 32.77142334 C-24.96581363 29.3639049 -26.32567529 25.96297293 -27.6875 22.5625 C-29.04693316 19.14687017 -30.40294109 15.72995926 -31.7532959 12.31072998 C-32.59324735 10.18605957 -33.43886923 8.06362052 -34.29064941 5.94366455 C-34.6710437 4.98546814 -35.05143799 4.02727173 -35.44335938 3.04003906 C-35.78089233 2.19733459 -36.11842529 1.35463013 -36.46618652 0.48638916 C-37.1875 -1.6875 -37.1875 -1.6875 -37.1875 -4.6875 C-25.46525614 -8.59491462 -10.7717456 -5.04238601 0 0 Z " fill="#FBF9F3" transform="translate(569.1875,361.6875)"/>
<path d="M0 0 C1.34288086 -0.01836914 1.34288086 -0.01836914 2.71289062 -0.03710938 C17.08301656 -0.068236 31.36599758 3.86153414 41.8125 14.1875 C51.46280272 25.56107106 55.38121271 39.11004347 55 53.9296875 C54.65699875 58.05999423 54.19195211 61.77489221 51.18157959 64.85762024 C47.90363128 66.69769228 45.40712354 66.54747219 41.65722656 66.52807617 C40.58833443 66.52873329 40.58833443 66.52873329 39.49784851 66.52940369 C37.14932579 66.52731851 34.80152255 66.5040012 32.453125 66.48046875 C30.82216787 66.47487181 29.19120568 66.47060217 27.5602417 66.46760559 C23.27262386 66.45616449 18.98531207 66.42670378 14.69781494 66.39349365 C10.32072082 66.36277685 5.94357714 66.34909682 1.56640625 66.33398438 C-7.01836943 66.30183324 -15.60289662 66.25064595 -24.1875 66.1875 C-23.59719109 67.94218144 -22.99449838 69.69269945 -22.38671875 71.44140625 C-22.05244873 72.4166626 -21.71817871 73.39191895 -21.3737793 74.39672852 C-18.9104674 80.1917724 -14.54272374 83.72902855 -9.0625 86.625 C-0.40736663 90.02523097 8.72868614 88.93195437 17.1640625 85.46875 C22.35999692 82.95508261 27.70395999 80.29604001 31.8125 76.1875 C36.37665865 76.16313616 38.81648483 78.59908545 41.921875 81.60351562 C42.50453125 82.18810547 43.0871875 82.77269531 43.6875 83.375 C44.29335938 83.94025391 44.89921875 84.50550781 45.5234375 85.08789062 C49.781305 89.31188873 49.781305 89.31188873 49.92578125 93.3671875 C46.58043961 101.84205299 37.15767876 105.89996891 29.4375 109.7421875 C14.99181539 115.50178158 -5.921133 116.18453118 -20.47265625 110.515625 C-34.43342516 103.68589633 -44.13506225 95.85855558 -50.1875 81.1875 C-52.88352205 73.0074397 -53.65834558 65.26035468 -53.5625 56.6875 C-53.57410156 55.64980469 -53.58570313 54.61210938 -53.59765625 53.54296875 C-53.54381333 39.13101279 -49.41912608 25.42442549 -39.375 14.75 C-28.10491075 4.43537111 -14.99214278 0.01056529 0 0 Z " fill="#292929" transform="translate(446.1875,546.8125)"/>
<path d="M0 0 C9.57 0 19.14 0 29 0 C29 28.71 29 57.42 29 87 C33.96984249 82.92563903 33.96984249 82.92563903 38.1875 78.4375 C41.1410493 74.97762796 44.16936535 71.59670908 47.25 68.25 C47.71374023 67.745896 48.17748047 67.24179199 48.65527344 66.72241211 C49.61326313 65.6813114 50.57143629 64.64037947 51.52978516 63.59960938 C53.02712264 61.97049028 54.52004896 60.3374342 56.01171875 58.703125 C56.50188477 58.16655273 56.99205078 57.62998047 57.49707031 57.07714844 C58.86168642 55.58300945 60.22578047 54.08839371 61.58984375 52.59375 C62.38519531 51.7378125 63.18054688 50.881875 64 50 C64.53471924 49.29456055 65.06943848 48.58912109 65.62036133 47.86230469 C69.05285466 45.17603618 72.31382113 45.50020377 76.484375 45.609375 C77.29996887 45.61503479 78.11556274 45.62069458 78.95587158 45.62652588 C81.55451772 45.64887273 84.15177242 45.69906378 86.75 45.75 C88.51430297 45.77006729 90.2786276 45.78831766 92.04296875 45.8046875 C96.36251328 45.8487317 100.68102093 45.91774578 105 46 C103.21118173 49.87156898 100.72662354 52.503313 97.6875 55.4375 C97.21376953 55.90220703 96.74003906 56.36691406 96.25195312 56.84570312 C94.83733614 58.23322758 93.41868488 59.61663507 92 61 C87.83463536 65.09785468 83.85257677 69.34670071 79.875 73.625 C73.71712175 80.22538325 67.44296968 86.67758485 61 93 C63.61388084 97.09727316 66.34696655 100.63179531 69.6875 104.1875 C73.83373658 108.67875188 77.74398717 113.29177614 81.58203125 118.046875 C84.35500939 121.43358174 87.20223799 124.74956035 90.0625 128.0625 C94.25165471 132.92049472 98.34204257 137.83583805 102.30859375 142.87890625 C103.82495953 144.78049197 105.39601567 146.61011952 107 148.4375 C109 151 109 151 109 154 C104.00139921 154.1738677 99.00458072 154.30044417 94.00366211 154.38452148 C92.30510783 154.4195882 90.60676282 154.46725799 88.90893555 154.52807617 C74.85296856 155.01873621 74.85296856 155.01873621 70.43286133 152.58862305 C68.64836922 150.82754508 67.33354702 149.11625089 66 147 C65.26394531 146.14277344 64.52789062 145.28554688 63.76953125 144.40234375 C63.12371094 143.58894531 62.47789062 142.77554688 61.8125 141.9375 C57.72004794 136.85527824 53.51016434 131.88860812 49.24926758 126.94702148 C48.29544344 125.84023917 47.34316256 124.73212464 46.39257812 123.62255859 C45.44348299 122.516723 44.4888072 121.41565843 43.52929688 120.31884766 C40 116.222431 40 116.222431 40 114 C36.63919273 114.28806919 35.05826496 114.95449182 32.3684082 117.05541992 C29.44247699 120.6931538 29.26842439 123.44522488 29.29296875 127.92578125 C29.27784744 128.67337204 29.26272614 129.42096283 29.24714661 130.19120789 C29.20435919 132.56528087 29.1954412 134.93808031 29.1875 137.3125 C29.16434842 138.92776802 29.13898169 140.54300591 29.11132812 142.15820312 C29.04441365 146.10615713 29.02336928 150.05059113 29 154 C19.43 154 9.86 154 0 154 C0 103.18 0 52.36 0 0 Z " fill="#292929" transform="translate(284,504)"/>
<path d="M0 0 C-0.59629787 4.26277033 -2.09724435 7.30457791 -4.24609375 11.015625 C-4.73675072 11.86888367 -4.73675072 11.86888367 -5.23731995 12.73937988 C-5.9365396 13.95288063 -6.63901908 15.16450798 -7.34448242 16.37438965 C-8.44484842 18.26260984 -9.53497346 20.15643154 -10.62304688 22.05175781 C-13.7735269 27.52601672 -16.95614024 32.97538403 -20.28515625 38.34375 C-20.75187744 39.10397461 -21.21859863 39.86419922 -21.69946289 40.64746094 C-22.53560587 41.99922804 -23.38657206 43.34199719 -24.25561523 44.67285156 C-27.18113053 49.40727326 -27.63317377 52.59540958 -27 58 C-25.94394939 59.82912768 -25.94394939 59.82912768 -24 61 C-21.03271942 61.47526135 -21.03271942 61.47526135 -17.60083008 61.43237305 C-16.95665634 61.4425647 -16.3124826 61.45275635 -15.64878845 61.46325684 C-13.52228131 61.49342039 -11.39622434 61.50265731 -9.26953125 61.51171875 C-7.79406737 61.52856306 -6.31861787 61.54671297 -4.84318542 61.56611633 C-0.96180716 61.61364993 2.91951285 61.64343726 6.80108643 61.66955566 C10.76269031 61.69934444 14.72409337 61.74588048 18.68554688 61.79101562 C26.45693168 61.87708683 34.22833102 61.94441481 42 62 C41.68851067 63.93079445 41.37416106 65.86112762 41.05859375 67.79125977 C40.88384521 68.86626236 40.70909668 69.94126495 40.52905273 71.04884338 C38.07167939 84.75653853 28.7184064 97.08298232 17.70703125 105.28515625 C2.91626706 114.65477455 -13.46358267 117.55075958 -30.6484375 114.3125 C-33.56600088 113.3935824 -36.2411561 112.31784061 -39 111 C-39.928125 110.57589844 -40.85625 110.15179688 -41.8125 109.71484375 C-57.16082569 102.06199803 -67.50503449 89.08445371 -73 73 C-77.63160564 59.15368158 -75.25380769 44.20913846 -69.75 31 C-62.33446819 16.16893638 -49.39923923 5.68041101 -34 0 C-22.83384499 -3.40301867 -11.25024972 -2.52510615 0 0 Z " fill="#FAF9F3" transform="translate(316,358)"/>
<path d="M0 0 C33.99 0 67.98 0 103 0 C100.52406325 4.12656125 97.93737059 7.58981543 94.8125 11.1875 C91.47585998 15.0765929 88.1784357 18.97924593 85 23 C81.90926802 26.90141578 78.72629546 30.71098497 75.5 34.5 C71.58872616 39.09439586 67.77252648 43.74811966 64.0234375 48.4765625 C60.9118769 52.35700294 57.71134349 56.16207722 54.51953125 59.9765625 C52.077527 62.9069676 49.65997353 65.85572576 47.25 68.8125 C43.89173367 72.92831486 40.47895506 76.98582108 37 81 C34.29544022 77.70434056 32.60523887 74.26639067 30.83984375 70.39453125 C30.53744278 69.73389175 30.23504181 69.07325226 29.92347717 68.39259338 C28.92283399 66.20160766 27.92986915 64.00724443 26.9375 61.8125 C26.2390138 60.27616737 25.5404445 58.73987251 24.84179688 57.20361328 C19.13897303 44.63359287 13.55435429 32.01120129 8 19.375 C7.39634109 18.00294907 7.39634109 18.00294907 6.78048706 16.60317993 C5.64293375 14.01513902 4.50831253 11.42583784 3.375 8.8359375 C3.03203384 8.05529434 2.68906769 7.27465118 2.33570862 6.47035217 C0 1.11603724 0 1.11603724 0 0 Z " fill="#FAF9F5" transform="translate(376,317)"/>
<path d="M0 0 C9.57 0 19.14 0 29 0 C29 35.64 29 71.28 29 108 C19.43 108 9.86 108 0 108 C0 72.36 0 36.72 0 0 Z " fill="#292929" transform="translate(228,550)"/>
<path d="M0 0 C0.73573242 0.00008057 1.47146484 0.00016113 2.22949219 0.00024414 C4.43965652 -0.00191704 6.6493008 -0.01999306 8.859375 -0.0390625 C20.37136359 -0.08656255 30.71277551 0.34578806 39.515625 8.63476562 C42.84723826 12.34629969 44.98283015 16.06425806 44.97265625 21.13085938 C44.43187656 27.18298952 42.64877182 31.51333755 38.2890625 35.87304688 C30.97435843 41.51789294 22.14024425 42.35020345 13.171875 42.28320312 C12.4478952 42.28178818 11.72391541 42.28037323 10.97799683 42.27891541 C8.68580843 42.27335763 6.39372093 42.26081321 4.1015625 42.24804688 C2.53906392 42.24302641 0.97656379 42.23846446 -0.5859375 42.234375 C-4.39847585 42.22340207 -8.21093962 42.20616698 -12.0234375 42.18554688 C-12.04808388 36.36483065 -12.0662718 30.54414453 -12.07836914 24.72338867 C-12.08341017 22.74161246 -12.09024288 20.75983999 -12.09887695 18.77807617 C-12.11095265 15.93602579 -12.11666795 13.0940244 -12.12109375 10.25195312 C-12.12625504 9.36028946 -12.13141632 8.46862579 -12.13673401 7.54994202 C-12.13692927 5.42814086 -12.0855378 3.30643908 -12.0234375 1.18554688 C-9.5474724 -1.29041822 -3.46922041 0.01203977 0 0 Z " fill="#FBF9F1" transform="translate(134.0234375,590.814453125)"/>
<path d="M0 0 C2.36411755 2.88008402 3.68077639 5.446176 4.82421875 8.984375 C5.10096436 9.82709961 5.37770996 10.66982422 5.6628418 11.53808594 C6.000979 12.59801758 6.33911621 13.65794922 6.6875 14.75 C7.780625 18.1325 8.87375 21.515 10 25 C23.365 25.495 23.365 25.495 37 26 C32.87328767 30.12671233 28.97758113 33.42341585 24.3125 36.8125 C23.63638672 37.31458984 22.96027344 37.81667969 22.26367188 38.33398438 C17.25095663 42 17.25095663 42 15 42 C15.24234375 42.74685059 15.4846875 43.49370117 15.734375 44.26318359 C16.82592612 47.63282289 17.9130172 51.00388443 19 54.375 C19.3815625 55.550625 19.763125 56.72625 20.15625 57.9375 C20.69765625 59.61972656 20.69765625 59.61972656 21.25 61.3359375 C21.58515625 62.37282715 21.9203125 63.4097168 22.265625 64.47802734 C23 67 23 67 23 69 C20.10661685 67.63959382 17.60029129 66.07911178 15.03125 64.1796875 C14.29519531 63.64472656 13.55914062 63.10976563 12.80078125 62.55859375 C11.26319548 61.43346732 9.72934275 60.30322204 8.19921875 59.16796875 C7.46316406 58.63558594 6.72710937 58.10320312 5.96875 57.5546875 C4.97004883 56.81968018 4.97004883 56.81968018 3.95117188 56.06982422 C1.78630619 54.67948483 1.78630619 54.67948483 -2 55 C-4.27761347 56.18193073 -4.27761347 56.18193073 -6.546875 57.84375 C-7.81337891 58.72353516 -7.81337891 58.72353516 -9.10546875 59.62109375 C-10.41451172 60.55115234 -10.41451172 60.55115234 -11.75 61.5 C-13.08224609 62.43005859 -13.08224609 62.43005859 -14.44140625 63.37890625 C-16.63356558 64.91106062 -18.81930516 66.45159263 -21 68 C-21.66 67.67 -22.32 67.34 -23 67 C-21.87685891 63.77018378 -20.75115766 60.54126553 -19.625 57.3125 C-19.30789062 56.40048828 -18.99078125 55.48847656 -18.6640625 54.54882812 C-18.3546875 53.66259766 -18.0453125 52.77636719 -17.7265625 51.86328125 C-17.30238037 50.64572144 -17.30238037 50.64572144 -16.86962891 49.40356445 C-15.96803802 46.91166039 -14.99728271 44.45499672 -14 42 C-14.71414062 41.74863281 -15.42828125 41.49726563 -16.1640625 41.23828125 C-19.26765787 39.8831301 -21.66695461 38.21659418 -24.375 36.1875 C-27.61159219 33.77428986 -30.85272686 31.40025255 -34.1875 29.125 C-35.115625 28.42375 -36.04375 27.7225 -37 27 C-37 26.34 -37 25.68 -37 25 C-27.43 25 -17.86 25 -8 25 C-7.34 22.03 -6.68 19.06 -6 16 C-5.18236234 13.31020136 -4.34564657 10.65706978 -3.4375 8 C-3.21642578 7.33355469 -2.99535156 6.66710937 -2.76757812 5.98046875 C-1.13398858 1.13398858 -1.13398858 1.13398858 0 0 Z " fill="#282828" transform="translate(177,350)"/>
<path d="M0 0 C0.66 0 1.32 0 2 0 C3.34090793 3.7681831 4.6714179 7.53995521 6 11.3125 C6.3815625 12.38435547 6.763125 13.45621094 7.15625 14.56054688 C7.69765625 16.10258789 7.69765625 16.10258789 8.25 17.67578125 C8.58515625 18.62364502 8.9203125 19.57150879 9.265625 20.5480957 C10 23 10 23 10 26 C19.24 26 28.48 26 38 26 C32.375 31.625 32.375 31.625 29.01171875 34.11328125 C28.30595703 34.63857422 27.60019531 35.16386719 26.87304688 35.70507812 C26.15181641 36.23552734 25.43058594 36.76597656 24.6875 37.3125 C23.94693359 37.86228516 23.20636719 38.41207031 22.44335938 38.97851562 C20.63160324 40.32272179 18.817141 41.66308744 17 43 C17.43572657 44.62547642 17.87370898 46.25034813 18.3125 47.875 C18.58191406 48.87402344 18.85132813 49.87304688 19.12890625 50.90234375 C20.16150621 54.57432479 21.33182549 58.19322585 22.546875 61.80859375 C23.05344935 64.25849212 22.67270348 65.62781875 22 68 C21.44538086 67.60619141 20.89076172 67.21238281 20.31933594 66.80664062 C17.80294966 65.02801544 15.2767077 63.26392802 12.75 61.5 C11.87730469 60.87996094 11.00460937 60.25992188 10.10546875 59.62109375 C9.26113281 59.03457031 8.41679687 58.44804687 7.546875 57.84375 C6.77182617 57.29912109 5.99677734 56.75449219 5.19824219 56.19335938 C2.83097995 54.68193301 2.83097995 54.68193301 -1 55 C-3.27761347 56.18193073 -3.27761347 56.18193073 -5.546875 57.84375 C-6.81337891 58.72353516 -6.81337891 58.72353516 -8.10546875 59.62109375 C-9.41451172 60.55115234 -9.41451172 60.55115234 -10.75 61.5 C-12.08224609 62.43005859 -12.08224609 62.43005859 -13.44140625 63.37890625 C-15.63356558 64.91106062 -17.81930516 66.45159263 -20 68 C-21.11260528 64.69354494 -20.88574269 62.85251272 -19.71484375 59.59375 C-19.43189453 58.76746094 -19.14894531 57.94117188 -18.85742188 57.08984375 C-18.24370175 55.3620457 -17.6265068 53.63547803 -17.00585938 51.91015625 C-16.72419922 51.08386719 -16.44253906 50.25757813 -16.15234375 49.40625 C-15.88413818 48.65666016 -15.61593262 47.90707031 -15.33959961 47.13476562 C-14.8955495 44.34341108 -15.40391525 43.31021531 -17 41 C-18.86795454 39.32165355 -18.86795454 39.32165355 -21.09765625 37.8359375 C-21.89880859 37.27132812 -22.69996094 36.70671875 -23.52539062 36.125 C-24.78125977 35.25875 -24.78125977 35.25875 -26.0625 34.375 C-27.72265993 33.21988489 -29.3803467 32.06120456 -31.03515625 30.8984375 C-31.7712915 30.38974121 -32.50742676 29.88104492 -33.26586914 29.35693359 C-35 28 -35 28 -36 26 C-26.76 26 -17.52 26 -8 26 C-7.34 23.03 -6.68 20.06 -6 17 C-5.53481956 15.45567685 -5.04145431 13.91879777 -4.4921875 12.40234375 C-4.22792969 11.66435547 -3.96367187 10.92636719 -3.69140625 10.16601562 C-3.42199219 9.43060547 -3.15257812 8.69519531 -2.875 7.9375 C-2.59785156 7.16728516 -2.32070313 6.39707031 -2.03515625 5.60351562 C-1.3616363 3.73391715 -0.68152583 1.86669497 0 0 Z " fill="#262627" transform="translate(432,128)"/>
<path d="M0 0 C0.66 0 1.32 0 2 0 C3.34117853 3.60129621 4.6715839 7.20647859 6 10.8125 C6.3815625 11.83666016 6.763125 12.86082031 7.15625 13.91601562 C7.69765625 15.39038086 7.69765625 15.39038086 8.25 16.89453125 C8.58515625 17.80050049 8.9203125 18.70646973 9.265625 19.63989258 C10 22 10 22 10 25 C19.24 25 28.48 25 38 25 C38 25.66 38 26.32 38 27 C36.50292969 28.26513672 36.50292969 28.26513672 34.421875 29.6796875 C33.67292969 30.19660156 32.92398438 30.71351563 32.15234375 31.24609375 C30.96318359 32.05240234 30.96318359 32.05240234 29.75 32.875 C28.20053366 33.93110392 26.65357833 34.99090298 25.109375 36.0546875 C24.41811523 36.52374512 23.72685547 36.99280273 23.01464844 37.47607422 C20.80307562 39.14895807 18.9183443 41.00159035 17 43 C17.21205078 43.65597168 17.42410156 44.31194336 17.64257812 44.98779297 C18.59805207 47.94923722 19.54907874 50.91209091 20.5 53.875 C20.83386719 54.90753906 21.16773438 55.94007813 21.51171875 57.00390625 C21.98544922 58.48310547 21.98544922 58.48310547 22.46875 59.9921875 C22.76201172 60.90339355 23.05527344 61.81459961 23.35742188 62.75341797 C24 65 24 65 24 67 C18.22471944 65.1388256 13.67966929 61.32225197 8.8828125 57.72460938 C4.98022153 54.81945085 4.98022153 54.81945085 0.33984375 53.9296875 C-2.55807812 55.25528114 -4.90477295 56.87613138 -7.4375 58.8125 C-8.39398438 59.53050781 -9.35046875 60.24851563 -10.3359375 60.98828125 C-11.21507812 61.65214844 -12.09421875 62.31601563 -13 63 C-18.57575758 67 -18.57575758 67 -21 67 C-18.99165082 58.55580459 -16.62826171 50.27168661 -14 42 C-14.55985596 41.59160889 -15.11971191 41.18321777 -15.6965332 40.76245117 C-18.23717287 38.90683309 -20.7748584 37.04721569 -23.3125 35.1875 C-24.19357422 34.54490234 -25.07464844 33.90230469 -25.98242188 33.24023438 C-26.82998047 32.61826172 -27.67753906 31.99628906 -28.55078125 31.35546875 C-29.72120972 30.49924927 -29.72120972 30.49924927 -30.9152832 29.62573242 C-33 28 -33 28 -36 25 C-26.76 25 -17.52 25 -8 25 C-7.01 21.37 -6.02 17.74 -5 14 C-4.13720214 11.42618892 -3.24626388 8.86142303 -2.3125 6.3125 C-1.87550781 5.11238281 -1.43851562 3.91226563 -0.98828125 2.67578125 C-0.66214844 1.79277344 -0.33601563 0.90976563 0 0 Z " fill="#272727" transform="translate(312,156)"/>
<path d="M0 0 C0.66 0 1.32 0 2 0 C3.34117853 3.60129621 4.6715839 7.20647859 6 10.8125 C6.3815625 11.83666016 6.763125 12.86082031 7.15625 13.91601562 C7.69765625 15.39038086 7.69765625 15.39038086 8.25 16.89453125 C8.58515625 17.80050049 8.9203125 18.70646973 9.265625 19.63989258 C10 22 10 22 10 25 C19.24 25 28.48 25 38 25 C32.375 30.625 32.375 30.625 29.01171875 33.11328125 C28.30595703 33.63857422 27.60019531 34.16386719 26.87304688 34.70507812 C26.15181641 35.23552734 25.43058594 35.76597656 24.6875 36.3125 C23.94693359 36.86228516 23.20636719 37.41207031 22.44335938 37.97851562 C20.63160324 39.32272179 18.817141 40.66308744 17 42 C18.18458792 47.79811387 19.66377101 53.35597913 21.625 58.9375 C24 65.74894663 24 65.74894663 24 68 C21.09337466 66.63701306 18.59882166 65.06741375 16.03125 63.14453125 C15.29519531 62.60505859 14.55914063 62.06558594 13.80078125 61.50976562 C12.26131009 60.3741116 10.72746003 59.2307997 9.19921875 58.08007812 C8.46316406 57.54447266 7.72710938 57.00886719 6.96875 56.45703125 C6.30294922 55.96178955 5.63714844 55.46654785 4.95117188 54.95629883 C3.06294589 53.8219692 3.06294589 53.8219692 1.01806641 54.17626953 C-1.30437719 55.1242401 -3.192842 56.29666734 -5.2578125 57.72265625 C-6.44310547 58.52993164 -6.44310547 58.52993164 -7.65234375 59.35351562 C-8.46832031 59.91748047 -9.28429687 60.48144531 -10.125 61.0625 C-11.74975096 62.18253568 -13.37722505 63.29863469 -15.0078125 64.41015625 C-15.72598145 64.90652588 -16.44415039 65.40289551 -17.18408203 65.91430664 C-19 67 -19 67 -21 67 C-19.37625277 60.29772419 -17.67407107 53.68844431 -15.453125 47.15625 C-14.91593083 44.59994671 -15.06803732 43.43691196 -16 41 C-17.87177731 39.20367167 -17.87177731 39.20367167 -20.25390625 37.6171875 C-21.53491211 36.70259766 -21.53491211 36.70259766 -22.84179688 35.76953125 C-23.73962891 35.14433594 -24.63746094 34.51914063 -25.5625 33.875 C-27.33873098 32.62821027 -29.11110168 31.37589642 -30.87890625 30.1171875 C-31.6685376 29.56659668 -32.45816895 29.01600586 -33.27172852 28.44873047 C-33.84205811 27.97064941 -34.4123877 27.49256836 -35 27 C-35 26.34 -35 25.68 -35 25 C-26.09 25 -17.18 25 -8 25 C-7.01 21.37 -6.02 17.74 -5 14 C-4.13720214 11.42618892 -3.24626388 8.86142303 -2.3125 6.3125 C-1.87550781 5.11238281 -1.43851563 3.91226563 -0.98828125 2.67578125 C-0.66214844 1.79277344 -0.33601562 0.90976563 0 0 Z " fill="#262627" transform="translate(552,156)"/>
<path d="M0 0 C2.29355087 2.29355087 2.86201284 3.96758443 3.9453125 7.0078125 C4.26516113 7.8961377 4.58500977 8.78446289 4.91455078 9.69970703 C5.31399902 10.83005371 5.71344727 11.96040039 6.125 13.125 C7.40375 16.71375 8.6825 20.3025 10 24 C23.86 24.495 23.86 24.495 38 25 C33.7410657 29.2589343 29.60115943 32.74592379 24.8125 36.3125 C24.08869141 36.86228516 23.36488281 37.41207031 22.61914062 37.97851562 C21.92626953 38.49736328 21.23339844 39.01621094 20.51953125 39.55078125 C19.89151611 40.02169189 19.26350098 40.49260254 18.61645508 40.9777832 C17 42 17 42 15 42 C15.24234375 42.64324219 15.4846875 43.28648437 15.734375 43.94921875 C17.71279037 49.28333097 19.58044106 54.64302639 21.3125 60.0625 C21.83263672 61.68865234 21.83263672 61.68865234 22.36328125 63.34765625 C23 66 23 66 22 68 C21.21351074 67.42499756 21.21351074 67.42499756 20.41113281 66.83837891 C18.02632369 65.09749989 15.63820819 63.3612127 13.25 61.625 C12.0125 60.72007812 12.0125 60.72007812 10.75 59.796875 C9.95078125 59.21679688 9.1515625 58.63671875 8.328125 58.0390625 C7.5949707 57.50490723 6.86181641 56.97075195 6.10644531 56.42041016 C4.12803658 55.08633714 2.15823887 54.01087473 0 53 C-0.46374023 53.34780518 -0.92748047 53.69561035 -1.40527344 54.05395508 C-6.27018229 57.70263672 -11.13509115 61.35131836 -16 65 C-16.69899414 65.55518311 -17.39798828 66.11036621 -18.11816406 66.68237305 C-20 68 -20 68 -22 68 C-20.28093279 60.65489463 -18.26461991 53.51925234 -15.76953125 46.3984375 C-14.89816428 44.10241424 -14.89816428 44.10241424 -15 42 C-16.54722134 40.64781001 -16.54722134 40.64781001 -18.578125 39.3203125 C-19.32707031 38.80339844 -20.07601562 38.28648437 -20.84765625 37.75390625 C-21.64042969 37.21636719 -22.43320312 36.67882812 -23.25 36.125 C-32.67362791 29.70193023 -32.67362791 29.70193023 -36 26 C-26.62895894 25.11504503 -17.40228594 24.8829591 -8 25 C-7.896875 24.02804687 -7.79375 23.05609375 -7.6875 22.0546875 C-7.04049274 17.53247126 -5.5631427 13.40152247 -4 9.125 C-3.72671875 8.35414063 -3.4534375 7.58328125 -3.171875 6.7890625 C-1.14466003 1.14466003 -1.14466003 1.14466003 0 0 Z " fill="#272828" transform="translate(644,239)"/>
<path d="M0 0 C0.66 0 1.32 0 2 0 C3.17652472 3.4133521 4.33948174 6.83117595 5.5 10.25 C5.83386719 11.21808594 6.16773438 12.18617188 6.51171875 13.18359375 C6.82753906 14.11816406 7.14335937 15.05273438 7.46875 16.015625 C7.76201172 16.87446289 8.05527344 17.73330078 8.35742188 18.61816406 C9 21 9 21 9 25 C18.24 25 27.48 25 37 25 C32.87328767 29.12671233 28.97758113 32.42341585 24.3125 35.8125 C23.63638672 36.31458984 22.96027344 36.81667969 22.26367188 37.33398438 C17.25095663 41 17.25095663 41 15 41 C15.24758057 41.71655762 15.49516113 42.43311523 15.75024414 43.17138672 C16.86208868 46.40331605 17.96242303 49.63904737 19.0625 52.875 C19.45244141 54.00292969 19.84238281 55.13085938 20.24414062 56.29296875 C20.60830078 57.36933594 20.97246094 58.44570313 21.34765625 59.5546875 C21.68804932 60.54968262 22.02844238 61.54467773 22.37915039 62.56982422 C23 65 23 65 22 67 C14.85304569 62.52975671 7.86184293 57.89706361 1 53 C-1.9115281 54.37583975 -4.48765528 55.95333027 -7.109375 57.8203125 C-7.86347656 58.35527344 -8.61757812 58.89023437 -9.39453125 59.44140625 C-10.56048828 60.27478516 -10.56048828 60.27478516 -11.75 61.125 C-12.54277344 61.68832031 -13.33554688 62.25164062 -14.15234375 62.83203125 C-16.10334076 64.21888455 -18.05247588 65.60827614 -20 67 C-20.66 66.67 -21.32 66.34 -22 66 C-21.68192383 65.01604248 -21.68192383 65.01604248 -21.35742188 64.01220703 C-20.40194793 61.05076278 -19.45092126 58.08790909 -18.5 55.125 C-18.16613281 54.09246094 -17.83226562 53.05992187 -17.48828125 51.99609375 C-17.01455078 50.51689453 -17.01455078 50.51689453 -16.53125 49.0078125 C-16.09135742 47.64100342 -16.09135742 47.64100342 -15.64257812 46.24658203 C-14.9083343 44.0689637 -14.9083343 44.0689637 -15 42 C-17.1551444 40.31115591 -19.31022534 38.73693718 -21.5625 37.1875 C-22.79296875 36.32682292 -24.0234375 35.46614583 -25.25390625 34.60546875 C-27.17016121 33.2679722 -29.09015557 31.93912164 -31.02685547 30.63134766 C-32.71902537 29.469553 -34.36424962 28.23997037 -36 27 C-36 26.34 -36 25.68 -36 25 C-26.76 25 -17.52 25 -8 25 C-7.67 23.02 -7.34 21.04 -7 19 C-6.50254769 17.40436189 -5.96030273 15.82189451 -5.37109375 14.2578125 C-5.05849609 13.41992188 -4.74589844 12.58203125 -4.42382812 11.71875 C-4.09833984 10.8628125 -3.77285156 10.006875 -3.4375 9.125 C-3.10814453 8.24585938 -2.77878906 7.36671875 -2.43945312 6.4609375 C-1.63113386 4.30541947 -0.81787706 2.15190559 0 0 Z " fill="#272828" transform="translate(219,239)"/>
<path d="M0 0 C0.66 0 1.32 0 2 0 C3.3381816 3.95671116 4.669722 7.91562528 6 11.875 C6.3815625 13.00292969 6.763125 14.13085938 7.15625 15.29296875 C7.69765625 16.90751953 7.69765625 16.90751953 8.25 18.5546875 C8.58515625 19.54968262 8.9203125 20.54467773 9.265625 21.56982422 C10 24 10 24 10 26 C19.24 26 28.48 26 38 26 C32.375 31.625 32.375 31.625 29.01171875 33.89453125 C28.30595703 34.37470703 27.60019531 34.85488281 26.87304688 35.34960938 C26.15181641 35.83236328 25.43058594 36.31511719 24.6875 36.8125 C23.94693359 37.31458984 23.20636719 37.81667969 22.44335938 38.33398438 C20.63215731 39.56092771 18.81772622 40.78275266 17 42 C17.63480605 47.922178 19.21092972 53.28827744 21.0625 58.9375 C21.34416016 59.81212891 21.62582031 60.68675781 21.91601562 61.58789062 C22.60565555 63.72694327 23.30040829 65.86418579 24 68 C18.03545517 66.16744904 13.56722831 61.93881633 8.79492188 58.08007812 C8.10849609 57.54447266 7.42207031 57.00886719 6.71484375 56.45703125 C5.78853149 55.7141687 5.78853149 55.7141687 4.84350586 54.95629883 C3.05033043 53.81623824 3.05033043 53.81623824 1.01806641 54.1784668 C-1.25718267 55.10469631 -3.01999346 56.23790964 -5.00390625 57.6875 C-5.74447266 58.22117187 -6.48503906 58.75484375 -7.24804688 59.3046875 C-8.01181641 59.86414063 -8.77558594 60.42359375 -9.5625 61 C-11.0821809 62.10754242 -12.60422174 63.21185591 -14.12890625 64.3125 C-14.79994385 64.80363281 -15.47098145 65.29476562 -16.16235352 65.80078125 C-18 67 -18 67 -21 68 C-19.87292214 61.29685274 -18.11561304 55.05706088 -15.8046875 48.6640625 C-14.80723319 45.82563405 -14.80723319 45.82563405 -15 42 C-16.7428847 40.18255895 -16.7428847 40.18255895 -19.12109375 38.6171875 C-19.97380859 38.00746094 -20.82652344 37.39773438 -21.70507812 36.76953125 C-22.60677734 36.14433594 -23.50847656 35.51914062 -24.4375 34.875 C-26.20946797 33.62584526 -27.97912426 32.37340279 -29.74609375 31.1171875 C-30.53685303 30.56659668 -31.3276123 30.01600586 -32.14233398 29.44873047 C-34 28 -34 28 -35 26 C-26.09 26 -17.18 26 -8 26 C-7.34 23.36 -6.68 20.72 -6 18 C-5.52004218 16.42002586 -5.02125937 14.8454625 -4.4921875 13.28125 C-4.22792969 12.49492187 -3.96367188 11.70859375 -3.69140625 10.8984375 C-3.42199219 10.10695313 -3.15257812 9.31546875 -2.875 8.5 C-2.59785156 7.67757813 -2.32070313 6.85515625 -2.03515625 6.0078125 C-1.3595435 4.00427123 -0.68016663 2.00199989 0 0 Z " fill="#262626" transform="translate(686,350)"/>
<path d="M0 0 C4.35581651 -0.10007178 8.71099593 -0.17202448 13.06762695 -0.21972656 C14.54463378 -0.23964487 16.02156384 -0.26679007 17.49829102 -0.30175781 C37.67663008 -0.76704335 37.67663008 -0.76704335 45.02075195 5.80957031 C49.0113507 10.17001759 50.32167124 13.78858429 50.2109375 19.8125 C49.69237683 25.1901662 48.04285342 28.90864177 44.3125 32.8125 C35.98565635 38.31135901 28.42098771 38.41875476 18.77954102 38.28125 C16.54361505 38.24973381 14.30839304 38.24023577 12.07226562 38.234375 C1.16396165 38.16396165 1.16396165 38.16396165 0 37 C-0.08858646 34.26105915 -0.11523479 31.5474673 -0.09765625 28.80859375 C-0.0962413 27.98875504 -0.09482635 27.16891632 -0.09336853 26.32423401 C-0.08775289 23.69528618 -0.07519779 21.06642227 -0.0625 18.4375 C-0.05748701 16.65950643 -0.05292376 14.88151154 -0.04882812 13.10351562 C-0.03777839 8.73564455 -0.02050331 4.36783652 0 0 Z " fill="#FCFAF2" transform="translate(122,530)"/>
<path d="M0 0 C0.66 0 1.32 0 2 0 C2.26627197 0.648479 2.53254395 1.29695801 2.80688477 1.96508789 C4.05512696 4.99906586 5.30880493 8.0307714 6.5625 11.0625 C6.98080078 12.08150391 7.39910156 13.10050781 7.83007812 14.15039062 C10.74580763 21.18760244 13.87364013 28.10582406 17.11938477 34.99487305 C19.12381941 39.25118958 21.08652729 43.52613653 23.04296875 47.8046875 C23.3830043 48.54824997 23.72303986 49.29181244 24.07337952 50.0579071 C24.7639248 51.56876724 25.45422652 53.07973873 26.14428711 54.59082031 C27.19629241 56.89425153 28.24945399 59.1971516 29.30273438 61.5 C30.93105491 65.06146351 32.55498852 68.6248964 34.17572021 72.18981934 C34.90661274 73.79491453 35.64171973 75.39808915 36.37744141 77.00097656 C39 82.77175824 39 82.77175824 39 85 C28.11 84.505 28.11 84.505 17 84 C16.030625 80.82375 15.06125 77.6475 14.0625 74.375 C9.22360996 59.33117194 1.37960399 46.74537954 -11.3125 37.125 C-11.95767578 36.62742187 -12.60285156 36.12984375 -13.26757812 35.6171875 C-14.84046574 34.40548149 -16.4195916 33.20188027 -18 32 C-14.60857347 24.97855412 -10.78695473 18.24308072 -6.875 11.5 C-6.24207031 10.39140625 -5.60914063 9.2828125 -4.95703125 8.140625 C-4.34988281 7.09390625 -3.74273437 6.0471875 -3.1171875 4.96875 C-2.56659668 4.01419922 -2.01600586 3.05964844 -1.44873047 2.07617188 C-0.97064941 1.39103516 -0.49256836 0.70589844 0 0 Z " fill="#FAFAFB" transform="translate(358,319)"/>
<path d="M0 0 C8.47881841 1.79623684 14.88741295 10.37992127 19.46484375 17.31640625 C23.28242518 23.98988829 25.73635447 30.41812684 27 38 C11.16 38 -4.68 38 -21 38 C-19.47783953 34.19459882 -17.97697798 31.0664006 -15.91796875 27.578125 C-15.31533203 26.55203125 -14.71269531 25.5259375 -14.09179688 24.46875 C-13.46337891 23.4065625 -12.83496094 22.344375 -12.1875 21.25 C-8.03982367 14.21151896 -3.91989886 7.16846525 0 0 Z " fill="#FDFDFD" transform="translate(331,366)"/>
<path d="M0 0 C4.4726029 3.65715596 6.97769487 6.87540377 8.62109375 12.421875 C8.62109375 14.071875 8.62109375 15.721875 8.62109375 17.421875 C-8.53890625 17.421875 -25.69890625 17.421875 -43.37890625 17.421875 C-42.3177453 8.93258736 -40.97231952 5.16290231 -34.484375 -0.12109375 C-23.55059838 -7.47497507 -10.97847692 -7.2829305 0 0 Z " fill="#FAF8F1" transform="translate(465.37890625,575.578125)"/>
<path d="M0 0 C3.49967802 3.07288802 5.28487038 5.03924563 5.87890625 9.76953125 C6.14912736 16.1415193 5.54957388 20.21369615 1.5625 25.25 C-3.11668776 28.96935437 -8.52869881 28.86874695 -14.296875 28.73046875 C-18.33473205 28.11273689 -20.4274994 26.89363924 -23.203125 23.953125 C-26.62691462 19.22916211 -27.15061813 13.90966774 -26.4375 8.25 C-24.64123441 3.06078829 -22.20965734 0.87955609 -17.4375 -1.75 C-11.55833554 -3.67320494 -5.42278885 -2.7606925 0 0 Z " fill="#2B2B2B" transform="translate(253.4375,504.75)"/>
<path d="M0 0 C0.66 0 1.32 0 2 0 C2.26627197 0.648479 2.53254395 1.29695801 2.80688477 1.96508789 C7.62980146 13.68767108 12.49868792 25.34247049 17.953125 36.78662109 C20.31472394 41.77968452 22.62451174 46.79678919 24.9375 51.8125 C25.43499756 52.88242187 25.93249512 53.95234375 26.44506836 55.0546875 C26.90534424 56.05371094 27.36562012 57.05273438 27.83984375 58.08203125 C28.25613037 58.98155518 28.67241699 59.8810791 29.10131836 60.80786133 C30 63 30 63 30 65 C29.05125 64.814375 28.1025 64.62875 27.125 64.4375 C24.10131207 63.71313368 24.10131207 63.71313368 22 65 C21.72027344 63.99582031 21.44054687 62.99164063 21.15234375 61.95703125 C17.54108158 49.45816258 12.87940693 38.74569053 4 29 C4 28.34 4 27.68 4 27 C3.34 27 2.68 27 2 27 C0.375 25.625 0.375 25.625 -1 24 C-1 23.34 -1 22.68 -1 22 C-1.5775 21.7525 -2.155 21.505 -2.75 21.25 C-5 20 -5 20 -9 16 C-6.03 10.72 -3.06 5.44 0 0 Z " fill="#F3F2EC" transform="translate(358,319)"/>
<path d="M0 0 C7.32186211 1.06285095 13.33929416 8.8660824 17.625 14.4375 C20 17.68508287 20 17.68508287 20 20 C9.77 20 -0.46 20 -11 20 C-7.1875 13.375 -7.1875 13.375 -6.00463867 11.32568359 C-3.87340688 7.60860759 -1.87917688 3.85320179 0 0 Z " fill="#F6F4ED" transform="translate(331,366)"/>
<path d="M0 0 C2.59043341 3.88565011 5.10182123 7.72833324 4.88671875 12.52734375 C3.68920853 15.86665638 2.20297646 16.49156113 -0.875 18.1875 C-10.95868857 24.2742861 -18.23791491 31.43244704 -24.18408203 41.52954102 C-25.07929314 43.04618099 -26.03439051 44.52718024 -27 46 C-27.66 46 -28.32 46 -29 46 C-27.72858953 37.66519805 -24.17249281 31.21818942 -20 24 C-19.34 24 -18.68 24 -18 24 C-17.938125 23.29875 -17.87625 22.5975 -17.8125 21.875 C-16.71956229 18.00768196 -14.75677165 15.88499359 -12 13 C-11.319375 12.67 -10.63875 12.34 -9.9375 12 C-7.66757845 11.02674942 -7.66757845 11.02674942 -6 8 C-4.07452811 5.11179217 -3.18109078 4.13610385 0 3 C0 2.01 0 1.02 0 0 Z " fill="#F5F5F5" transform="translate(504,333)"/>
<path d="M0 0 C1.32 0 2.64 0 4 0 C3.40392226 4.40831012 1.75583752 7.56668597 -0.45703125 11.40234375 C-0.97338387 12.30262047 -0.97338387 12.30262047 -1.50016785 13.22108459 C-2.22739322 14.48610718 -2.95795701 15.7492158 -3.69165039 17.01049805 C-4.80477845 18.92422485 -5.90815356 20.84329741 -7.00976562 22.76367188 C-13.93751098 34.7874406 -13.93751098 34.7874406 -17 39 C-17.66 39 -18.32 39 -19 39 C-19.37472748 33.99198163 -18.41106072 31.26081116 -15.859375 26.97265625 C-15.20066406 25.85052734 -14.54195313 24.72839844 -13.86328125 23.57226562 C-13.15920754 22.40213105 -12.45477781 21.23221062 -11.75 20.0625 C-11.05999096 18.89719821 -10.3711775 17.7311876 -9.68359375 16.56445312 C-8.37275496 14.34620845 -7.0572255 12.13072688 -5.73632812 9.91845703 C-3.78260818 6.63460323 -1.8790083 3.32700696 0 0 Z " fill="#EAEBEB" transform="translate(312,358)"/>
<path d="M0 0 C0.80646973 0.81041748 1.61293945 1.62083496 2.44384766 2.45581055 C6.39728112 5.73261673 9.91731515 5.73151028 14.8984375 5.70703125 C16.15087753 5.72971321 16.15087753 5.72971321 17.42861938 5.75285339 C20.07769025 5.79560836 22.72561901 5.80455619 25.375 5.8125 C27.17841552 5.83565393 28.98180407 5.86102113 30.78515625 5.88867188 C35.19020458 5.95140322 39.59454465 5.98383377 44 6 C42.42495885 7.87299108 41.52978289 8.90031391 39.0827179 9.36076355 C38.00016975 9.3507708 38.00016975 9.3507708 36.89575195 9.34057617 C35.6648156 9.34023628 35.6648156 9.34023628 34.40901184 9.33988953 C33.0870002 9.31666374 33.0870002 9.31666374 31.73828125 9.29296875 C30.37959175 9.28660149 30.37959175 9.28660149 28.99345398 9.28010559 C26.09950067 9.26330848 23.20624294 9.2256545 20.3125 9.1875 C18.35092151 9.17245449 16.38933211 9.15876585 14.42773438 9.14648438 C9.61822144 9.11340157 4.80922867 9.06161222 0 9 C0.66 8.34 1.32 7.68 2 7 C1.34 6.34 0.68 5.68 0 5 C-0.125 2.375 -0.125 2.375 0 0 Z " fill="#DCDCDC" transform="translate(454,240)"/>
<path d="M0 0 C2 3.75 2 3.75 2 6 C-13.84 6 -29.68 6 -46 6 C-45.67 5.01 -45.34 4.02 -45 3 C-30.15 3.33 -15.3 3.66 0 4 C0 2.68 0 1.36 0 0 Z " fill="#DEDEDE" transform="translate(356,398)"/>
<path d="M0 0 C3 1 3 1 4.60546875 3.87109375 C5.12753906 5.04800781 5.64960938 6.22492188 6.1875 7.4375 C6.71730469 8.61183594 7.24710937 9.78617187 7.79296875 10.99609375 C9 14 9 14 9 16 C8.05125 15.814375 7.1025 15.62875 6.125 15.4375 C3.10131207 14.71313368 3.10131207 14.71313368 1 16 C0.44435129 13.71168328 -0.09414974 11.41919635 -0.625 9.125 C-0.92664063 7.84882813 -1.22828125 6.57265625 -1.5390625 5.2578125 C-1.69117188 4.18273437 -1.84328125 3.10765625 -2 2 C-1.34 1.34 -0.68 0.68 0 0 Z " fill="#F1F1EC" transform="translate(379,368)"/>
<path d="M0 0 C3.09971759 1.06552792 5.6357553 2.40417383 8.3125 4.25 C13.06161295 7.34884204 18.28009187 9.07077123 23.62817383 10.85644531 C25.44936512 11.48896264 27.22959804 12.23678785 29 13 C29.33 13.99 29.66 14.98 30 16 C19.38363246 15.27615676 9.66529933 10.25281686 2 3 C1.34 2.01 0.68 1.02 0 0 Z " fill="#DADADB" transform="translate(503,456)"/>
<path d="M0 0 C23.76 0.33 47.52 0.66 72 1 C67.82390569 3.08804715 66.06934398 3.24049615 61.51904297 3.21118164 C59.54712479 3.20611351 59.54712479 3.20611351 57.53536987 3.20094299 C56.10430848 3.18741049 54.67324771 3.17381338 53.2421875 3.16015625 C51.77296339 3.15388384 50.30373453 3.14864441 48.83450317 3.14439392 C44.97186494 3.13110587 41.10938553 3.10667584 37.24682617 3.07904053 C31.05727095 3.0358761 24.86767168 3.00623258 18.67801285 2.9829998 C16.51419505 2.97276039 14.35050498 2.95571458 12.18673706 2.93800354 C10.87842926 2.93147263 9.57012146 2.92494171 8.22216797 2.91821289 C6.48820267 2.90583336 6.48820267 2.90583336 4.71920776 2.89320374 C2.03327717 2.81179153 2.03327717 2.81179153 0 4 C0 2.68 0 1.36 0 0 Z " fill="#F2F2EB" transform="translate(422,613)"/>
<path d="M0 0 C2.96980684 1.42415737 5.71680724 3.05444991 8.5 4.8125 C16.14024578 9.42824671 24.3403711 12.83509278 33 15 C30 17 30 17 26.125 16.5625 C16.33578454 14.0712804 6.89531833 8.37444921 0 1 C0 0.67 0 0.34 0 0 Z " fill="#E2E3E3" transform="translate(258,455)"/>
<path d="M0 0 C9.57 0.33 19.14 0.66 29 1 C29 1.66 29 2.32 29 3 C25.68131409 4.02245821 22.81716411 4.04443871 19.359375 3.87890625 C17.75449219 3.80639648 17.75449219 3.80639648 16.1171875 3.73242188 C14.45042969 3.64831055 14.45042969 3.64831055 12.75 3.5625 C11.06003906 3.48418945 11.06003906 3.48418945 9.3359375 3.40429688 C6.55700028 3.27477014 3.77843576 3.13980947 1 3 C0.67 2.01 0.34 1.02 0 0 Z " fill="#1F1F1F" transform="translate(321,180)"/>
<path d="M0 0 C11.88 0 23.76 0 36 0 C36 0.33 36 0.66 36 1 C25.11 1 14.22 1 3 1 C2.01 3.97 1.02 6.94 0 10 C-0.33 10 -0.66 10 -1 10 C-0.67 6.7 -0.34 3.4 0 0 Z " fill="#D3D4D3" transform="translate(375,420)"/>
<path d="M0 0 C3.16115776 1.36983503 3.9927092 1.9890638 6 5 C5.84004059 8.75904624 5.42578361 10.50970372 2.9375 13.375 C2.298125 13.91125 1.65875 14.4475 1 15 C0.34 14.34 -0.32 13.68 -1 13 C-0.34 12.67 0.32 12.34 1 12 C1.19814261 5.91591528 1.19814261 5.91591528 0 0 Z " fill="#E8E8E7" transform="translate(493,265)"/>
<path d="M0 0 C1.98 0.495 1.98 0.495 4 1 C4.99 4.63 5.98 8.26 7 12 C3.38331145 10.19165572 1.38162202 9.17549603 -1 6 C-0.75 2.75 -0.75 2.75 0 0 Z " fill="#2E2F30" transform="translate(569,212)"/>
<path d="M0 0 C2.66694948 -0.05455124 5.33275498 -0.09393392 8 -0.125 C8.74378906 -0.14175781 9.48757813 -0.15851563 10.25390625 -0.17578125 C15.50548443 -0.22144715 19.9516946 0.54287549 25 2 C24.34 2.66 23.68 3.32 23 4 C20.00860427 3.84349065 17.14925534 3.57665275 14.1875 3.1875 C13.37990234 3.09146484 12.57230469 2.99542969 11.74023438 2.89648438 C7.78938351 2.41435761 3.88974149 1.8600037 0 1 C0 0.67 0 0.34 0 0 Z " fill="#DCDCDC" transform="translate(542,338)"/>
<path d="M0 0 C3.00024947 -0.05444001 5.99949039 -0.0938836 9 -0.125 C9.83917969 -0.14175781 10.67835938 -0.15851563 11.54296875 -0.17578125 C17.05254877 -0.21849117 21.71048292 0.44497993 27 2 C27 2.99 27 3.98 27 5 C25.97261719 4.79503906 24.94523437 4.59007812 23.88671875 4.37890625 C15.9361013 2.82280741 8.10187603 1.49778476 0 1 C0 0.67 0 0.34 0 0 Z " fill="#D8D8D8" transform="translate(296,338)"/>
<path d="M0 0 C0.66 0.33 1.32 0.66 2 1 C1.01 1.78375 0.02 2.5675 -1 3.375 C-2.485 4.674375 -2.485 4.674375 -4 6 C-4 6.66 -4 7.32 -4 8 C-5.61974559 9.71230248 -7.2958946 11.37163262 -9 13 C-9.928125 13.928125 -10.85625 14.85625 -11.8125 15.8125 C-12.534375 16.534375 -13.25625 17.25625 -14 18 C-14.33 17.34 -14.66 16.68 -15 16 C-10.74015016 9.71880965 -5.81328353 4.85732135 0 0 Z " fill="#464647" transform="translate(415,555)"/>
<path d="M0 0 C-5.41538462 4.06153846 -5.41538462 4.06153846 -8.375 3.75 C-9.179375 3.37875 -9.179375 3.37875 -10 3 C-10 2.67 -10 2.34 -10 2 C-15.28 1.67 -20.56 1.34 -26 1 C-26 0.67 -26 0.34 -26 0 C-22.41713181 -0.19720979 -18.83369943 -0.38107522 -15.25 -0.5625 C-14.23421875 -0.61857422 -13.2184375 -0.67464844 -12.171875 -0.73242188 C-11.1921875 -0.78076172 -10.2125 -0.82910156 -9.203125 -0.87890625 C-8.30239258 -0.9260376 -7.40166016 -0.97316895 -6.47363281 -1.02172852 C-4.12542592 -1.00110175 -2.23793298 -0.67823071 0 0 Z M-11 3 C-11 6 -11 6 -11 6 Z " fill="#2C2C2E" transform="translate(724,377)"/>
<path d="M0 0 C4.03846204 1.42707037 7.22134896 3.36877892 10.6875 5.875 C11.64011719 6.55304688 12.59273437 7.23109375 13.57421875 7.9296875 C15.88240107 9.89963377 16.92879705 11.20610224 18 14 C17.31035156 13.55269531 16.62070312 13.10539062 15.91015625 12.64453125 C10.04878888 8.87363784 4.14365212 5.29178398 -2 2 C-1.34 1.34 -0.68 0.68 0 0 Z " fill="#D6D7D6" transform="translate(575,344)"/>
<path d="M0 0 C0.66 0 1.32 0 2 0 C2.66 2.97 3.32 5.94 4 9 C2.35 9.66 0.7 10.32 -1 11 C-2.26264601 6.70700357 -1.62950412 4.12168689 0 0 Z " fill="#303032" transform="translate(686,350)"/>
<path d="M0 0 C9.24 0 18.48 0 28 0 C27.01 1.485 27.01 1.485 26 3 C25.34 3 24.68 3 24 3 C24 2.34 24 1.68 24 1 C16.08 1 8.16 1 0 1 C0 0.67 0 0.34 0 0 Z " fill="#141516" transform="translate(442,154)"/>
<path d="M0 0 C0.66 0 1.32 0 2 0 C3.15081169 4.02784093 2.96281457 6.28098293 1 10 C0.01 10.495 0.01 10.495 -1 11 C-2.26264601 6.70700357 -1.62950412 4.12168689 0 0 Z " fill="#2C2D2E" transform="translate(432,128)"/>
<path d="M0 0 C7.625 0.875 7.625 0.875 11 2 C11.33 2.99 11.66 3.98 12 5 C7.25081338 4.53439347 3.89217595 3.83067342 0 1 C0 0.67 0 0.34 0 0 Z " fill="#E7E8E8" transform="translate(521,467)"/>
<path d="M0 0 C0.33 0.99 0.66 1.98 1 3 C-1.97 5.97 -4.94 8.94 -8 12 C-8.66 11.67 -9.32 11.34 -10 11 C-6.7 7.37 -3.4 3.74 0 0 Z " fill="#4C4C4C" transform="translate(325,579)"/>
<path d="M0 0 C1.1055189 0.93590504 2.20935453 1.87379858 3.3125 2.8125 C3.92738281 3.33457031 4.54226563 3.85664063 5.17578125 4.39453125 C6.85424679 5.87172469 8.43882034 7.40039131 10 9 C9.67 9.66 9.34 10.32 9 11 C5.7 8.36 2.4 5.72 -1 3 C-0.67 2.01 -0.34 1.02 0 0 Z " fill="#CBCCCC" transform="translate(341,348)"/>
<path d="M0 0 C1.32 0 2.64 0 4 0 C3.67 2.64 3.34 5.28 3 8 C2.01 8.33 1.02 8.66 0 9 C0 8.01 0 7.02 0 6 C-0.185625 5.319375 -0.37125 4.63875 -0.5625 3.9375 C-1 2 -1 2 0 0 Z " fill="#ECEBE9" transform="translate(354,421)"/>
<path d="M0 0 C2 3 2 3 1.75 4.9375 C0.97936717 7.05674028 0.0643413 9.01322958 -1 11 C-1.66 11 -2.32 11 -3 11 C-2.69078116 9.54096742 -2.37751201 8.08279278 -2.0625 6.625 C-1.88847656 5.81289063 -1.71445312 5.00078125 -1.53515625 4.1640625 C-1 2 -1 2 0 0 Z " fill="#E0E0E1" transform="translate(478,368)"/>
<path d="M0 0 C0.66 0.66 1.32 1.32 2 2 C-0.52623786 4.52623786 -3.24530578 6.72438303 -6 9 C-6.66 8.67 -7.32 8.34 -8 8 C-8 7.34 -8 6.68 -8 6 C-6.25 4.4921875 -6.25 4.4921875 -4 2.875 C-3.2575 2.33617187 -2.515 1.79734375 -1.75 1.2421875 C-1.1725 0.83226562 -0.595 0.42234375 0 0 Z " fill="#2F2E30" transform="translate(582,458)"/>
<path d="M0 0 C0.99 0.33 1.98 0.66 3 1 C1.7625 2.0209375 1.7625 2.0209375 0.5 3.0625 C-2.36068704 5.84478007 -2.36068704 5.84478007 -2.3125 9.8125 C-2.209375 10.864375 -2.10625 11.91625 -2 13 C-2.66 12.67 -3.32 12.34 -4 12 C-4.33292585 7.75519536 -4.43885872 5.64457375 -2 2.0625 C-1.34 1.381875 -0.68 0.70125 0 0 Z " fill="#D7D7D8" transform="translate(325,247)"/>
<path d="M0 0 C0.99 0.33 1.98 0.66 3 1 C0.36 3.64 -2.28 6.28 -5 9 C-5.66 8.67 -6.32 8.34 -7 8 C-4.69 5.36 -2.38 2.72 0 0 Z " fill="#333334" transform="translate(454,348)"/>
<path d="M0 0 C2.86867231 1.38264837 5.56024032 2.92148553 8.25 4.625 C8.95640625 5.07101562 9.6628125 5.51703125 10.390625 5.9765625 C10.92171875 6.31429688 11.4528125 6.65203125 12 7 C11.01 7.66 10.02 8.32 9 9 C7.49704815 7.69088122 5.99770689 6.37761608 4.5 5.0625 C3.6646875 4.33160156 2.829375 3.60070312 1.96875 2.84765625 C1.3190625 2.23792969 0.669375 1.62820313 0 1 C0 0.67 0 0.34 0 0 Z " fill="#CFD0D1" transform="translate(258,455)"/>
<path d="M0 0 C0.99 0.33 1.98 0.66 3 1 C2.37240135 3.92879371 1.41377341 6.36095629 0 9 C-0.66 9 -1.32 9 -2 9 C-1.34 6.03 -0.68 3.06 0 0 Z " fill="#DFDFE0" transform="translate(234,370)"/>
<path d="M0 0 C0 3.58912412 -0.66436554 4.10857029 -3 6.6875 C-3.556875 7.31011719 -4.11375 7.93273437 -4.6875 8.57421875 C-5.120625 9.04472656 -5.55375 9.51523437 -6 10 C-6.66 9.67 -7.32 9.34 -8 9 C-6.85459775 7.68712379 -5.70866567 6.37470979 -4.5625 5.0625 C-3.92441406 4.33160156 -3.28632813 3.60070312 -2.62890625 2.84765625 C-1.77458541 1.87860647 -0.91348825 0.91348825 0 0 Z " fill="#3B3B3C" transform="translate(492,358)"/>
<path d="M0 0 C3.94139078 1.66751148 6.7892812 4.22710649 10 7 C9.67 7.66 9.34 8.32 9 9 C7.49428343 7.88266271 5.99555708 6.75589965 4.5 5.625 C3.6646875 4.99851562 2.829375 4.37203125 1.96875 3.7265625 C1.3190625 3.15679687 0.669375 2.58703125 0 2 C0 1.34 0 0.68 0 0 Z " fill="#CECECF" transform="translate(583,349)"/>
<path d="M0 0 C0.33 1.32 0.66 2.64 1 4 C-0.9375 6.25 -0.9375 6.25 -3 8 C-3.99 7.67 -4.98 7.34 -6 7 C-4.02 4.69 -2.04 2.38 0 0 Z " fill="#4B4B4B" transform="translate(332,571)"/>
<path d="M0 0 C2.86632997 1.05098766 3.83006643 1.66862954 5.25 4.4375 C6 7 6 7 6 10 C4.5 8.625 4.5 8.625 3 7 C3 6.34 3 5.68 3 5 C2.34 5 1.68 5 1 5 C0.67 3.35 0.34 1.7 0 0 Z " fill="#E5E5E5" transform="translate(359,341)"/>
<path d="M0 0 C0.12375 0.61875 0.2475 1.2375 0.375 1.875 C0.87197356 4.19120832 0.87197356 4.19120832 3 6 C3 6.99 3 7.98 3 9 C2.01 9 1.02 9 0 9 C-0.66 6.36 -1.32 3.72 -2 1 C-1.34 0.67 -0.68 0.34 0 0 Z " fill="#F0F1EE" transform="translate(236,279)"/>
<path d="M0 0 C2.64 0 5.28 0 8 0 C6.68 1.32 5.36 2.64 4 4 C1.525 3.01 1.525 3.01 -1 2 C-0.67 1.34 -0.34 0.68 0 0 Z " fill="#1A1A1B" transform="translate(206,376)"/>
<path d="M0 0 C0.66 0 1.32 0 2 0 C0.55746343 3.36591866 -1.33264727 5.51047079 -4 8 C-4.66 7.67 -5.32 7.34 -6 7 C-5.04882866 5.8274869 -4.08882991 4.66212985 -3.125 3.5 C-2.59132813 2.8503125 -2.05765625 2.200625 -1.5078125 1.53125 C-0.76144531 0.77328125 -0.76144531 0.77328125 0 0 Z " fill="#353535" transform="translate(462,338)"/>
<path d="M0 0 C0 3.52032428 -0.70351351 4.4385343 -3 7 C-3.66 7 -4.32 7 -5 7 C-5.33 5.68 -5.66 4.36 -6 3 C-5.38125 2.87625 -4.7625 2.7525 -4.125 2.625 C-1.80879168 2.12802644 -1.80879168 2.12802644 0 0 Z " fill="#E0E0DE" transform="translate(466,322)"/>
<path d="M0 0 C0.33 0 0.66 0 1 0 C0.67 2.31 0.34 4.62 0 7 C-0.99 7.33 -1.98 7.66 -3 8 C-2.67 6.02 -2.34 4.04 -2 2 C-1.34 2 -0.68 2 0 2 C0 1.34 0 0.68 0 0 Z " fill="#F4F4F0" transform="translate(549,160)"/>
<path d="M0 0 C1.32 1.32 2.64 2.64 4 4 C2.625 5.5 2.625 5.5 1 7 C0.34 7 -0.32 7 -1 7 C-0.67 4.69 -0.34 2.38 0 0 Z " fill="#2D2E30" transform="translate(666,411)"/>
<path d="M0 0 C1.9451 2.91765 2.45276317 4.62537285 3 8 C-0.875 6.25 -0.875 6.25 -2 4 C-1.34 4 -0.68 4 0 4 C0 2.68 0 1.36 0 0 Z " fill="#3E3F40" transform="translate(197,411)"/>
</svg>
